<svg id="Layer_1" data-name="Layer 1" xmlns="http://www.w3.org/2000/svg" viewBox="0 0 425.2 425.2"><defs><style>.cls-1{fill:#fff;}</style></defs><title>Paint</title><path class="cls-1" d="M425.2,160.55V425.39H0V230.67c3.05.65,6.18,2.07,9.15,1.8,10-.9,20-2.18,30-3.73,34-5.31,68-10.65,101.94-16.35,5.09-.85,7.86.14,10.45,4.56,1.67,2.86,1.72,4.69.39,7.63a108,108,0,0,0-6.69,18.11c-4.1,16.58-1.83,31.62,12.14,43.29a5.23,5.23,0,0,1,1.67,3.47c.23,7.45.48,14.9.25,22.34-.47,14.9-1.23,29.79-1.91,44.68-.12,2.69.54,4.13,3.7,2.92.07-.6.18-1.2.21-1.79.5-10.79.91-21.59,1.52-32.37A92.37,92.37,0,0,1,170,294.15c1-2.22,2.19-3.57,4.81-3.92,5.57-.75,11.08-1.87,17.5-3-6.84-.78-12.78-1.1-18.58-2.2-11.57-2.2-20.58-8.09-24.68-19.66-2-5.73-2.81-12,.92-17.21,3.19-4.43,8.4-6,14-4.95s9.48,4.11,10.52,9.7c.63,3.39.12,7,.12,11.06l8.12-10.74c-3.15,14.65-1.85,20.77,5.24,25.33-3.28-6.19-4.21-12.51-2-18.93C189,250.49,195,243.4,204,240a41.84,41.84,0,0,1,16.34-2.2c5.52.23,11.31,1.4,15,6.73-.55-1.54-1.11-3.08-1.86-5.15l3.4,2.16c-4.62-6.77-4.81-7.07-3.87-8.49,2.69-4.06,6.65-2,10.93-1.9-3.25-3.08-6.34-5.52-4.94-10.38,1.57-5.42,5.86-4.6,9.75-5.33l-4.6-1.26,2.82-2.32c-2.95,0-5.52.63-7.61-.11-9-3.17-16.46-8.57-20.2-17.56-1.64-3.94-2-8.64-1.93-13a5.57,5.57,0,0,1,6.54-5.62c2.77.6,5.29,2.43,7.89,3.77,3.4,1.76,3.27,4.62,2.43,7.83l3.18-3.34,1.27.45c-.37,1.49-.31,3.34-1.2,4.39-2.06,2.43-4.9,2.16-7.52.89-4.07-2-6.33-5.41-7.19-10.3a12.21,12.21,0,0,0,7.56,12.48c4.51,1.88,7.78.62,11.83-4.54l11.71,4.73c-1.15,1.75-2.18,3.32-3.2,4.89l.46.39,5.77-4,.95.85-5.54,7.75.28.21,6.1-4.62.69.57-6,7.52,6.81-4.78a20,20,0,0,1,.78,3.13c.74,10.16,1.5,20.33,2,30.51.05.91-1.19,2.25-2.16,2.77a56.8,56.8,0,0,1-6.41,2.58l.18.59,7.17-1.13.14.62-5.58,2.4.15.52,5.67-.4.9.89c-2.28,3.1-4.27,6.48-6.91,9.24q-8.5,8.87-17.58,17.17a65.54,65.54,0,0,1-11.65,8.95c-4.06,2.28-8.7,3.65-13.21,5-4.69,1.37-9.54,2.21-15.26,3.49l8.8,1.38,0,.47-22.46,2.3c1.28,14.55,2.52,28.66,3.75,42.78l.78-.06,1.41-41.23.92,0q1.32,9.56,2.63,19.11h.71q.88-7.38,1.76-14.75l.84,0q.94,16.13,1.9,32.26h.61c1-12.18,2-24.36,3-36.72,4.38.31,8.33.61,12.28.87,7.76.52,13.05,4.58,14.49,12.34,3.14,17,5.94,34,8.68,51,.48,3,1.65,3.48,4.26,2.55,0-7.08.44-14.17-.09-21.18-1.24-16.48-3.08-32.9-4.42-49.37-.75-9.24,2.43-16.88,9.88-22.89a171.55,171.55,0,0,0,14.58-13.84,18.2,18.2,0,0,0,5.24-14.95c-1.05-13-1.68-26-2.5-39.28l6.29-1.14c16.71-3,33.39-6.11,50.12-9,15.42-2.62,30.88-4.95,46.34-7.36a3.86,3.86,0,0,1,1.92.61c2.64,1.27,5.26,2.57,7.89,3.86l.33-.68-3.17-2.38c14.86,3.59,26.87-1.12,38.2-8.6a10.93,10.93,0,0,0,1.75-1.78Q420.13,166,425.2,160.55Zm-364,71,.2.65,80.53-6.78.1.65L64.59,249.47a27.87,27.87,0,0,0,7.39-.91c23.18-4.95,46.37-9.87,69.53-14.92a6.62,6.62,0,0,0,3.94-2.67,70.71,70.71,0,0,0,4-8.79c.89-2.1-2.44-7.25-4.68-7.05-3.42.31-6.81.93-10.21,1.41l0,.52,6.1.43,0,.65Zm208.19-22.25,80.13-13.55-.1-.62L268.57,202C268.86,204.72,269.07,206.66,269.36,209.33ZM350.64,214v-.61l-81.33-3.38c.26,2.73.47,4.87.7,7.33Zm-1.42,18.2.08-.63-79.07-13.29v7.28ZM70.71,266.53l.18.67,1.64-.56q32.35-11.25,64.71-22.49c5-1.73,6.64-4.21,6.29-10Zm274.56-16.46.17-.65L270.6,226.86c-.35,7.23-.35,7.25,5.89,8.59l36.8,7.84Q329.28,246.7,345.27,250.07Zm-33.7,64.05.48-.32c-17.49-17.86-35-35.71-52.65-53.73l-5.14,4.55Zm27.69-46.87.37-.62-68.34-30.4c-.67,7.07-.68,7.09,5.13,9.12q13.53,4.76,27.07,9.46Zm-43,57.28.56-.59q-22-28.9-44-57.75l-5.27,4.33Zm36.17-40.4.31-.56-62.39-37.75-3.21,5.87ZM320.2,297.9l.58-.64-55.23-43.71-4.5,5.06Zm-37.38,39,.58-.28-37-64c-4.84,4.24-4.91,4.82-1.63,9.48l1.48,2.16Zm-142-91.61L80.64,281.65a4.69,4.69,0,0,0,3.15-.59c17.22-8.52,34.34-17.27,51.71-25.46C140.24,253.36,141.52,250.4,140.77,245.24ZM89.62,297.1l.37.66c.79-.49,1.6-.95,2.38-1.46,14.7-9.76,29.29-19.68,44.15-29.17,4-2.54,5.07-5.2,3.31-9.8Zm8.45,16.76.38.44,3.81-3.27q19.15-16.56,38.32-33.12c4.13-3.56,4.16-3.53,1.12-8.57Zm144.07-28.45-.91.22c.22,5-.74,10.05,2,14.94,4.36,7.92,8.42,16,12.61,24L266.48,345l.61-.3Q254.62,315.07,242.14,285.41Zm-95-5.86-33.84,44.62.62.48,36.69-40.79ZM127.5,335.31l.43.3a3.31,3.31,0,0,0,.73-.59q13.2-19,26.37-37.94c2-2.85,1.38-5.7.13-9.63Zm22.95-82.69c-3.13,19.51,13.4,31.48,27.09,29.54C161.54,278.25,152.71,268.47,150.45,252.62Zm38.29,18.24c.77-8,3.52-15.13,9.07-21s12.77-8.48,20.54-9.89C200.39,237.83,186.17,252.55,188.74,270.86Zm41,44.5-.54,0a3.28,3.28,0,0,0-.22,1c1.31,13.83,2.61,27.66,4,41.47.07.75,1.1,1.4,1.68,2.1l1.3-.64Q232.87,337.33,229.75,315.36Zm-61.95,2.73h-.52c-.47,5.18-1,10.36-1.41,15.55q-.88,11.88-1.56,23.78c0,.73.73,1.51,1.13,2.26a10,10,0,0,0,1.19-2,8.11,8.11,0,0,0,.15-2.22q.51-15.63,1-31.26C167.85,322.19,167.8,320.14,167.8,318.09Zm-25.42,28.26c12.7-23.73,14-22.77,13-30.77Zm86.79,13.2,1.76-.1q-1.62-16.27-3.23-32.53l-.77.07Q228.06,343.28,229.17,359.55Zm-8-19.34v19.86C223.39,358.15,223.26,351.87,221.19,340.21ZM169.7,359.55h.83V349.11h-.83Zm79.38-8.43.95-.27q-1.75-6.24-3.53-12.49l-1.13.33Q247.23,344.9,249.08,351.12Zm-72.19,8.44,1.81,0-.5-10.59h-.74Z" transform="translate(0 -0.2)"/><path class="cls-1" d="M0,229.18V.2H425.2V159.8c-6.82-.18-13.33.46-18.22,6.15a13.76,13.76,0,0,1-3.93,2.8c-3.14,1.7-6.38,3.25-9.57,4.87l-.48-.91a43.61,43.61,0,0,0,16.59-12.21c-4.08-1.13-8.18-1.35-11.06-3.34-2.68-1.85-5.24-2.25-8.1-2.54-9.06-.93-17.46.41-24.25,7.19a2.63,2.63,0,0,1-1.37.38c-14.61,2.16-29.24,4.26-43.84,6.52-3.25.51-6.37,2-9.62,2.29-11.1,1.11-22.24,1.75-33.34,2.89-6.23.63-12.41,1.89-18.51,2.86-5.79-16.64-13.34-20.85-27.52-15.7-8.86-11.89-28.27-13.45-32.56,1.93-5.09-3.65-10.43-6.51-16.92-5.35-7,1.25-10.13,6.45-12,12.66-11-4.94-14.86-1.1-20,5.8s-9.14,14.71-8.43,24.06c-1.38.28-2.71.57-4,.8-42.25,7.2-84.49,14.46-126.77,21.52C6.43,223.27,2.39,224.65,0,229.18Zm229-76a40.18,40.18,0,0,1,.71-4q7.23-26,14.51-52l6.3-22.44-.59-.18c-9.29,25-18.59,50.09-28,75.35l7.15,3.08c1.59,1.34,3.11,3.56,4.8,3.71,1.15.1,3-2.51,3.77-4.26,7.05-16.41,13.94-32.9,20.86-49.37,2.86-6.8,5.68-13.63,8.51-20.44a2.18,2.18,0,0,0-1.4,1.18q-13.17,25.25-26.36,50.49C236,140.75,232.44,147,229,153.23Zm-55.3,3.51A19.15,19.15,0,0,1,172,154.9q-17.25-24.77-34.45-49.54c-2.91-4.19-5.83-8.36-8.74-12.55l-.66.43,39,67.7-.64.42-51.89-57.63a4.78,4.78,0,0,0,1.17,3q20.61,27.16,41.18,54.33c1.88,2.5,3.58,4.44,7.17,4.11,2.26-.2,4.78,1.68,6.05-1.93a53.37,53.37,0,0,1,3.35-6.62l8-1.67c-12.62-24.15-24.83-47.51-37-70.87a6.28,6.28,0,0,0,.63,3.67q12.18,29,24.36,58C171.06,149.35,172.32,153.07,173.7,156.74ZM205,150a10.37,10.37,0,0,1-.49-1.77q-3.72-35.58-7.4-71.17-.34-3.42-.67-6.86l-.73.07,1.56,78.2-.88.11L178.35,71.8l-.56.13,11.52,79.21-.62.15q-14.19-38.2-28.39-76.4c2.73,12,6,23.83,9.32,35.64,3.82,13.63,7.62,27.27,11.55,40.87a4.63,4.63,0,0,0,2.51,2.91c4.74,1.14,9.58,1.89,14.74,2.85,1.76-2,4.13-4.58,6.51-7.21,7.08.06,7.89-.6,8.06-7.42.34-13.77.65-27.55.83-41.32.13-10,0-20.06,0-30.29a5.71,5.71,0,0,0-.39,1.1q-3.14,30.36-6.28,60.73C206.57,138.53,205.74,144.28,205,150Zm15.89-.43,11.75-78.79-.61-.11c-6.06,25.89-12.13,51.78-18.23,77.86ZM282.07,93.1l-.73-.36-43.86,63.2c2.44,0,4-.23,5.41.06,2.27.45,3.31-.59,4.35-2.41q14-24.39,28.08-48.7Q278.71,99,282.07,93.1Zm-123.56,72L100.59,115l-.52.56,52.2,53.35ZM80.36,144.66l-.4.77,62.51,37.84,3.28-6.15Zm-14.52,33-.13.59a12.9,12.9,0,0,0,1.33.56q32.24,9.74,64.5,19.42a10.42,10.42,0,0,0,4,.16c1.69-.19,3.32-.35,3.42-2.93s-1.69-2.61-3.32-2.95q-20.39-4.36-40.78-8.7Q80.36,180.67,65.84,177.61Zm75.88,7.29L71.46,160.41l-.28.72,68.29,30.37Zm5.1-9.19,4.37-5.49L89.34,129.14l-.45.66Zm107-15.44,43.82-57.89-.6-.48-49.14,54.78Zm67.52-30.56-.45-.63-60.4,40.16c.2,3.2,1.39,4.73,4.49,3.46a22.06,22.06,0,0,0,5.25-2.49c10.18-7.92,20.27-16,30.37-24Q311,138,321.33,129.71Zm-10.52-14.79-.46-.55-54.89,47.44,4.11,5.4Zm-32,55.1c7.34.22,12.65-1.11,17.84-4.24q18.09-10.92,36.14-21.88l-.31-.57ZM60.21,195.13l-.06.3a19.73,19.73,0,0,0,2.45.75c13.59,2.3,27.13,5,40.8,6.63,5.38.64,11-1.05,16.58-1.67l-.11-1Z" transform="translate(0 -0.2)"/><path d="M0,229.18c2.39-4.53,6.43-5.91,11.26-6.71C53.54,215.41,95.78,208.15,138,201c1.33-.23,2.66-.52,4-.8-.71-9.35,3.17-17.05,8.43-24.06s9-10.74,20-5.8c1.85-6.21,5-11.41,12-12.66,6.49-1.16,11.83,1.7,16.92,5.35,4.29-15.38,23.7-13.82,32.56-1.93,14.18-5.15,21.73-.94,27.52,15.7,6.1-1,12.28-2.23,18.51-2.86,11.1-1.14,22.24-1.78,33.34-2.89,3.25-.32,6.37-1.78,9.62-2.29,14.6-2.26,29.23-4.36,43.84-6.52a2.63,2.63,0,0,0,1.37-.38c6.79-6.78,15.19-8.12,24.25-7.19,2.86.29,5.42.69,8.1,2.54,2.88,2,7,2.21,11.06,3.34A43.61,43.61,0,0,1,393,172.71l.48.91c3.19-1.62,6.43-3.17,9.57-4.87A13.76,13.76,0,0,0,407,166c4.89-5.69,11.4-6.33,18.22-6.15v.75Q420.12,166,415,171.49a10.93,10.93,0,0,1-1.75,1.78c-11.33,7.48-23.34,12.19-38.2,8.6l3.17,2.38-.33.68c-2.63-1.29-5.25-2.59-7.89-3.86a3.86,3.86,0,0,0-1.92-.61c-15.46,2.41-30.92,4.74-46.34,7.36-16.73,2.84-33.41,6-50.12,9l-6.29,1.14c.82,13.32,1.45,26.32,2.5,39.28a18.2,18.2,0,0,1-5.24,14.95A171.55,171.55,0,0,1,248.05,266c-7.45,6-10.63,13.65-9.88,22.89,1.34,16.47,3.18,32.89,4.42,49.37.53,7,.09,14.1.09,21.18-2.61.93-3.78.46-4.26-2.55-2.74-17-5.54-34.07-8.68-51-1.44-7.76-6.73-11.82-14.49-12.34-3.95-.26-7.9-.56-12.28-.87-1,12.36-2,24.54-3,36.72h-.61q-1-16.14-1.9-32.26l-.84,0q-.87,7.37-1.76,14.75h-.71q-1.32-9.56-2.63-19.11l-.92,0-1.41,41.23-.78.06c-1.23-14.12-2.47-28.23-3.75-42.78l22.46-2.3,0-.47-8.8-1.38c5.72-1.28,10.57-2.12,15.26-3.49,4.51-1.32,9.15-2.69,13.21-5a65.54,65.54,0,0,0,11.65-8.95q9.06-8.28,17.58-17.17c2.64-2.76,4.63-6.14,6.91-9.24l-.9-.89-5.67.4-.15-.52,5.58-2.4-.14-.62-7.17,1.13-.18-.59a56.8,56.8,0,0,0,6.41-2.58c1-.52,2.21-1.86,2.16-2.77-.53-10.18-1.29-20.35-2-30.51a20,20,0,0,0-.78-3.13l-6.81,4.78,6-7.52-.69-.57-6.1,4.62-.28-.21,5.54-7.75-.95-.85-5.77,4-.46-.39c1-1.57,2.05-3.14,3.2-4.89L242,187.19c-4.05,5.16-7.32,6.42-11.83,4.54a12.21,12.21,0,0,1-7.56-12.48c.86,4.89,3.12,8.32,7.19,10.3,2.62,1.27,5.46,1.54,7.52-.89.89-1,.83-2.9,1.2-4.39l-1.27-.45-3.18,3.34c.84-3.21,1-6.07-2.43-7.83-2.6-1.34-5.12-3.17-7.89-3.77a5.57,5.57,0,0,0-6.54,5.62c-.08,4.33.29,9,1.93,13,3.74,9,11.23,14.39,20.2,17.56,2.09.74,4.66.11,7.61.11l-2.82,2.32,4.6,1.26c-3.89.73-8.18-.09-9.75,5.33-1.4,4.86,1.69,7.3,4.94,10.38C239.66,231,235.7,229,233,233c-.94,1.42-.75,1.72,3.87,8.49l-3.4-2.16c.75,2.07,1.31,3.61,1.86,5.15-3.7-5.33-9.49-6.5-15-6.73A41.84,41.84,0,0,0,204,240c-9,3.44-15,10.53-18.09,19.68-2.19,6.42-1.26,12.74,2,18.93-7.09-4.56-8.39-10.68-5.24-25.33L174.56,264c0-4.08.51-7.67-.12-11.06-1-5.59-5-8.67-10.52-9.7s-10.81.52-14,4.95c-3.73,5.17-2.95,11.48-.92,17.21,4.1,11.57,13.11,17.46,24.68,19.66,5.8,1.1,11.74,1.42,18.58,2.2-6.42,1.12-11.93,2.24-17.5,3-2.62.35-3.86,1.7-4.81,3.92a92.37,92.37,0,0,0-7.18,31.08c-.61,10.78-1,21.58-1.52,32.37,0,.59-.14,1.19-.21,1.79-3.16,1.21-3.82-.23-3.7-2.92.68-14.89,1.44-29.78,1.91-44.68.23-7.44,0-14.89-.25-22.34a5.23,5.23,0,0,0-1.67-3.47c-14-11.67-16.24-26.71-12.14-43.29a108,108,0,0,1,6.69-18.11c1.33-2.94,1.28-4.77-.39-7.63-2.59-4.42-5.36-5.41-10.45-4.56-33.94,5.7-67.94,11-101.94,16.35-9.94,1.55-19.94,2.83-29.95,3.73-3,.27-6.1-1.15-9.15-1.8Zm185.21-65.29-4.77,1.61,8.1,1.19c-3.2.69-6.39.71-9.39,1.48-1.53.39-3.57,1.94-3.91,3.32-1.5,6.09-2.46,12.31-3.7,18.88h10.54l-9.63,2.56.24.8,6.61-.54-7.56,3.5.31.88h6c-6.17,3.1-6.17,3.11-4.1,9.5.56,1.73,1.19,3.43,1.88,5.44,3.3-3.27,6.84-5.46,11.12-3.26,1.84.94,3.05,3.09,4.55,4.69l-.84.73c-3.38-6-8.26-6.7-11.74-1.22l5.29,1c-1.65.82-3.37.94-5,1.43-.85.26-2.06,1.09-2.14,1.77a7.65,7.65,0,0,0,9.77,8.09c4.41-1.22,7.29-5,7.13-10.57-.18-6.31-1.35-12.61-1.45-18.92-.06-3.92-1.66-5.68-5.16-6.39a17.76,17.76,0,0,1-2.3-1.07h7.09c1.53-5.26,3-10.27,4.44-15.27,1.72-5.81,1.75-5.82-3.54-9.16-3.55-2.25-7.24-3.59-12.12-1.31Zm17.45,23.6c-2.25,1.91-6.18,1.43-5.83,5.58.42,5.13,1,10.25,1.59,15.68,6-4.87,9.39-5.17,13.27-1.51-5.79-1.58-6.14-1.55-9,1l4.71,1.6c-1.81.63-3.54.52-5.17.88a3.25,3.25,0,0,0-2.12,1.91c-1.11,5.52,2.45,9.54,8.07,9.27a8.37,8.37,0,0,0,7.88-5.83,24.68,24.68,0,0,0,.19-17.13c-1.31-3.88-3.84-5.82-7.87-6-1.56-.08-3.12-.32-4.69-.49l0-.58,9-1c-.23-1.55-.48-2.87-.62-4.21-.81-7.81,2.85-15.73,11.06-16,.75,0,2.17-1.2,2.1-1.64-.56-3.38-.37-7.73-2.42-9.81-3.32-3.37-8.34-3.76-14-1.82l3.66,1-7.4,2.92.33.73h5.87c-2.23,1.32-6.3,2.3-7.54,4.74-2.58,5-3.65,10.83-5.38,16.48l7.23.55-8.43,2.75.38,1.24Zm-49.79,23c5.22-3.75,5.22-3.75,12.09-1.7-5.44.55-6.63,1.49-7.53,6.38l6.46-1-4.53,3.3c.66.56,1.08,1,1.57,1.33,3,2,6.09,2.77,9.33.54s1.94-5.26,1.14-8.08c-1.21-4.28-3-8.45-3.74-12.8-.59-3.46-1.95-5.08-5.38-5a5.68,5.68,0,0,1-1.41-.38l.08-.56h5.64l.11-.71-6.2-1.88.15-.43h6.57c.69-3.24,1.29-6.51,2.1-9.72.54-2.19.82-4-1.59-5.4-3.49-2.08-5-2.34-7.87-.44l3.15,1.34c-2.38.62-5.83.47-7.26,2.1-3.33,3.8-5.7,8.46-8.64,13l5.63,1.67-5.34,1.26.17.87h5.81l.06.45-6.34,1.71.13.64,3.86.4-4,2.13Zm211-32c3.8-.15,4.16-.52,3.78-4.05-.17-1.6-.45-3.19-.67-4.79-.65-4.88-1.12-5.23-5.93-4.49q-18.6,2.85-37.19,5.67c-11.17,1.7-9.81-.05-8.25,11.63.26,1.9.92,3.47,3.2,3.24s4.74-.3,4.62-3.51c-.1-2.55-.47-5.09-.72-7.63l.6-.18q1.18,4.86,2.38,9.74l.65-.06v-9.51l.64-.13c.64,3.14,1.29,6.27,1.94,9.41l1.18-.09c-.14-3.3-.29-6.6-.43-9.9l.48-.11c.77,3.19,1.53,6.38,2.38,9.91,2-.37,4.88,0,6.15-1.31,3.94-3.95,8.42-3.57,12.89-2.33,2.17.6,2.91.16,2.95-1.64.06-3-.23-5.91-.38-8.87l.5-.15L357,179.53l.5,0v-10.1l.65-.13,2.19,9.71,1.14-.1-.58-10.2.49-.11C362.21,171.83,363,175,363.85,178.47ZM230.7,173.41,249.07,186l1.16-.93L250,179.7l2.66,1.88c-1-3.25-1.65-5.54-2.33-7.84l.38-.18c1.16,2.1,2.31,4.2,3.75,6.83.05-8.06-3.57-14.28-9.12-16.37a10.77,10.77,0,0,0-12.14,3l6.75-1,0,.49-8.25,3.66.24.71h4.3Zm-4.45,39.92c-5,.56-6.39,3.94-7.15,8,4.25.94,8.67-1.47,9.52-5.48.31-1.46,0-3.88-1-4.6-1.18-.86-3.35-.38-5.09-.48l-.12,1.19Zm38.91-33.68,38-5.28C290.16,173.76,277.59,176.44,265.16,179.65Z" transform="translate(0 -0.2)"/><path d="M61.17,231.58l79.53-13.44,0-.65-6.1-.43,0-.52c3.4-.48,6.79-1.1,10.21-1.41,2.24-.2,5.57,5,4.68,7.05a70.71,70.71,0,0,1-4,8.79,6.62,6.62,0,0,1-3.94,2.67c-23.16,5.05-46.35,10-69.53,14.92a27.87,27.87,0,0,1-7.39.91L142,226.1l-.1-.65-80.53,6.78Z" transform="translate(0 -0.2)"/><path d="M269.36,209.33c-.29-2.67-.5-4.61-.79-7.31l80.82-6.86.1.62Z" transform="translate(0 -0.2)"/><path d="M350.64,214,270,217.38c-.23-2.46-.44-4.6-.7-7.33l81.33,3.38Z" transform="translate(0 -0.2)"/><path d="M349.22,232.24l-79-6.64v-7.28l79.07,13.29Z" transform="translate(0 -0.2)"/><path d="M70.71,266.53l72.82-32.37c.35,5.78-1.29,8.26-6.29,10q-32.37,11.23-64.71,22.49l-1.64.56Z" transform="translate(0 -0.2)"/><path d="M345.27,250.07q-16-3.39-32-6.78l-36.8-7.84c-6.24-1.34-6.24-1.36-5.89-8.59l74.84,22.56Z" transform="translate(0 -0.2)"/><path d="M311.57,314.12l-57.31-49.5,5.14-4.55c17.66,18,35.16,35.87,52.65,53.73Z" transform="translate(0 -0.2)"/><path d="M339.26,267.25l-35.77-12.44q-13.55-4.73-27.07-9.46c-5.81-2-5.8-2-5.13-9.12l68.34,30.4Z" transform="translate(0 -0.2)"/><path d="M296.3,324.53l-48.68-54,5.27-4.33q21.92,28.8,44,57.75Z" transform="translate(0 -0.2)"/><path d="M332.47,284.13l-65.29-32.44,3.21-5.87,62.39,37.75Z" transform="translate(0 -0.2)"/><path d="M320.2,297.9l-59.15-39.29,4.5-5.06,55.23,43.71Z" transform="translate(0 -0.2)"/><path d="M282.82,336.85l-36.55-52.62-1.48-2.16c-3.28-4.66-3.21-5.24,1.63-9.48l37,64Z" transform="translate(0 -0.2)"/><path d="M140.77,245.24c.75,5.16-.53,8.12-5.27,10.36-17.37,8.19-34.49,16.94-51.71,25.46a4.69,4.69,0,0,1-3.15.59Z" transform="translate(0 -0.2)"/><path d="M89.62,297.1l50.21-39.77c1.76,4.6.67,7.26-3.31,9.8-14.86,9.49-29.45,19.41-44.15,29.17-.78.51-1.59,1-2.38,1.46Z" transform="translate(0 -0.2)"/><path d="M98.07,313.86l43.63-44.52c3,5,3,5-1.12,8.57Q121.41,294.46,102.26,311l-3.81,3.27Z" transform="translate(0 -0.2)"/><path d="M242.14,285.41q12.48,29.65,24.95,59.32l-.61.3L255.8,324.6c-4.19-8-8.25-16.11-12.61-24-2.7-4.89-1.74-9.93-2-14.94Z" transform="translate(0 -0.2)"/><path d="M147.09,279.55l3.47,4.31-36.69,40.79-.62-.48Z" transform="translate(0 -0.2)"/><path d="M127.5,335.31l27.66-47.86c1.25,3.93,1.85,6.78-.13,9.63Q141.85,316,128.66,335a3.31,3.31,0,0,1-.73.59Z" transform="translate(0 -0.2)"/><path d="M150.45,252.62c2.26,15.85,11.09,25.63,27.09,29.54C163.85,284.1,147.32,272.13,150.45,252.62Z" transform="translate(0 -0.2)"/><path d="M188.74,270.86c-2.57-18.31,11.65-33,29.61-30.87-7.77,1.41-15,4-20.54,9.89S189.51,262.84,188.74,270.86Z" transform="translate(0 -0.2)"/><path d="M229.75,315.36q3.12,22,6.25,44l-1.3.64c-.58-.7-1.61-1.35-1.68-2.1-1.42-13.81-2.72-27.64-4-41.47a3.28,3.28,0,0,1,.22-1Z" transform="translate(0 -0.2)"/><path d="M167.8,318.09c0,2.05,0,4.1,0,6.15q-.48,15.63-1,31.26a8.11,8.11,0,0,1-.15,2.22,10,10,0,0,1-1.19,2c-.4-.75-1.17-1.53-1.13-2.26q.67-11.9,1.56-23.78c.39-5.19.94-10.37,1.41-15.55Z" transform="translate(0 -0.2)"/><path d="M142.38,346.35l13-30.77C156.41,323.58,155.08,322.62,142.38,346.35Z" transform="translate(0 -0.2)"/><path d="M229.17,359.55q-1.11-16.28-2.24-32.56l.77-.07q1.61,16.26,3.23,32.53Z" transform="translate(0 -0.2)"/><path d="M221.19,340.21c2.07,11.66,2.2,17.94,0,19.86Z" transform="translate(0 -0.2)"/><path d="M169.7,359.55V349.1h.83v10.44Z" transform="translate(0 -0.2)"/><path d="M249.08,351.12q-1.86-6.21-3.71-12.43l1.13-.33q1.77,6.24,3.53,12.49Z" transform="translate(0 -0.2)"/><path d="M176.89,359.56l.57-10.63h.74l.5,10.59Z" transform="translate(0 -0.2)"/><path d="M204.92,150l-6.5,7.21c-5.16-1-10-1.71-14.74-2.85a4.63,4.63,0,0,1-2.51-2.91c-3.93-13.6-7.73-27.24-11.55-40.87C166.31,98.72,163,86.9,160.3,74.89q14.19,38.21,28.39,76.4l.62-.15L177.79,71.93l.56-.13,18.06,76.82.88-.11-1.56-78.2.73-.07q.33,3.44.67,6.86,3.69,35.6,7.4,71.17A10.37,10.37,0,0,0,205,150Z" transform="translate(0 -0.2)"/><path d="M173.58,156.63a55.59,55.59,0,0,0-3.34,6.63c-1.27,3.61-3.79,1.73-6.05,1.93-3.59.33-5.29-1.61-7.17-4.11q-20.51-27.22-41.18-54.33a4.78,4.78,0,0,1-1.17-3l51.89,57.63.64-.42-39-67.7.66-.43c2.91,4.19,5.83,8.36,8.74,12.55Q154.81,130.13,172,154.9a19.15,19.15,0,0,0,1.66,1.84Z" transform="translate(0 -0.2)"/><path d="M229,153.23c3.44-6.27,7-12.48,10.3-18.81q13.24-25.21,26.36-50.49a2.18,2.18,0,0,1,1.4-1.18c-2.83,6.81-5.65,13.64-8.51,20.44-6.92,16.47-13.81,33-20.86,49.37-.75,1.75-2.62,4.36-3.77,4.26-1.69-.15-3.21-2.37-4.8-3.71Z" transform="translate(0 -0.2)"/><path d="M173.7,156.74c-1.38-3.67-2.64-7.39-4.15-11q-12.13-29-24.36-58a6.28,6.28,0,0,1-.63-3.67c12.2,23.36,24.41,46.72,37,70.87l-8,1.67Z" transform="translate(0 -0.2)"/><path d="M205,150c.72-5.76,1.55-11.51,2.16-17.29q3.19-30.36,6.28-60.73a5.71,5.71,0,0,1,.39-1.1c0,10.23.1,20.26,0,30.29-.18,13.77-.49,27.55-.83,41.32-.17,6.82-1,7.48-8.07,7.42Z" transform="translate(0 -0.2)"/><path d="M229.12,153.11,222,150c9.37-25.26,18.67-50.3,28-75.35l.59.18-6.3,22.44q-7.26,26-14.51,52a40.18,40.18,0,0,0-.71,4Z" transform="translate(0 -0.2)"/><path d="M220.91,149.61l-7.09-1c6.1-26.08,12.17-52,18.23-77.86l.61.11Z" transform="translate(0 -0.2)"/><path d="M282.07,93.1q-3.37,5.9-6.75,11.79-14.06,24.35-28.08,48.7c-1,1.82-2.08,2.86-4.35,2.41-1.43-.29-3-.06-5.41-.06l43.86-63.2Z" transform="translate(0 -0.2)"/><path d="M158.51,165.14l-6.24,3.8-52.2-53.35.52-.56Z" transform="translate(0 -0.2)"/><path d="M80.36,144.66l65.39,32.46-3.28,6.15L80,145.43Z" transform="translate(0 -0.2)"/><path d="M65.84,177.61q14.52,3.07,29,6.15,20.4,4.34,40.78,8.7c1.63.34,3.43.23,3.32,2.95s-1.73,2.74-3.42,2.93a10.42,10.42,0,0,1-4-.16Q99.28,188.54,67,178.76a12.9,12.9,0,0,1-1.33-.56Z" transform="translate(0 -0.2)"/><path d="M141.72,184.9l-2.25,6.6L71.18,161.13l.28-.72Z" transform="translate(0 -0.2)"/><path d="M146.82,175.71,88.89,129.8l.45-.66,61.85,41.08Z" transform="translate(0 -0.2)"/><path d="M253.81,160.27l-5.92-3.59L297,101.9l.6.48Z" transform="translate(0 -0.2)"/><path d="M321.33,129.71Q311,138,300.59,146.23c-10.1,8-20.19,16.06-30.37,24A22.06,22.06,0,0,1,265,172.7c-3.1,1.27-4.29-.26-4.49-3.46l60.4-40.16Z" transform="translate(0 -0.2)"/><path d="M310.81,114.92l-51.24,52.29-4.11-5.4,54.89-47.44Z" transform="translate(0 -0.2)"/><path d="M278.77,170l53.67-26.69.31.57q-18.08,10.93-36.14,21.88C291.42,168.91,286.11,170.24,278.77,170Z" transform="translate(0 -0.2)"/><path d="M60.21,195.13l59.66,5,.11,1c-5.53.62-11.2,2.31-16.58,1.67-13.67-1.65-27.21-4.33-40.8-6.63a19.73,19.73,0,0,1-2.45-.75Z" transform="translate(0 -0.2)"/><path class="cls-1" d="M185.21,163.89l-4.3-.86c4.88-2.28,8.57-.94,12.12,1.31,5.29,3.34,5.26,3.35,3.54,9.16-1.48,5-2.91,10-4.44,15.27H185a17.76,17.76,0,0,0,2.3,1.07c3.5.71,5.1,2.47,5.16,6.39.1,6.31,1.27,12.61,1.45,18.92.16,5.61-2.72,9.35-7.13,10.57a7.65,7.65,0,0,1-9.77-8.09c.08-.68,1.29-1.51,2.14-1.77,1.61-.49,3.33-.61,5-1.43l-5.29-1c3.48-5.48,8.36-4.83,11.74,1.22l.84-.73c-1.5-1.6-2.71-3.75-4.55-4.69-4.28-2.2-7.82,0-11.12,3.26-.69-2-1.32-3.71-1.88-5.44-2.07-6.39-2.07-6.4,4.1-9.5h-6l-.31-.88,7.56-3.5-6.61.54-.24-.8,9.63-2.56H171.54c1.24-6.57,2.2-12.79,3.7-18.88.34-1.38,2.38-2.93,3.91-3.32,3-.77,6.19-.79,9.39-1.48l-8.1-1.19Z" transform="translate(0 -0.2)"/><path class="cls-1" d="M202.66,187.49l-5,.36-.38-1.24,8.43-2.75-7.23-.55c1.73-5.65,2.8-11.45,5.38-16.48,1.24-2.44,5.31-3.42,7.54-4.74h-5.87l-.33-.73,7.4-2.92-3.66-1c5.61-1.94,10.63-1.55,14,1.82,2,2.08,1.86,6.43,2.42,9.81.07.44-1.35,1.62-2.1,1.64-8.21.3-11.87,8.22-11.06,16,.14,1.34.39,2.66.62,4.21l-9,1,0,.58c1.57.17,3.13.41,4.69.49,4,.19,6.56,2.13,7.87,6a24.68,24.68,0,0,1-.19,17.13A8.37,8.37,0,0,1,208.2,222c-5.62.27-9.18-3.75-8.07-9.27a3.25,3.25,0,0,1,2.12-1.91c1.63-.36,3.36-.25,5.17-.88l-4.71-1.6c2.84-2.6,3.19-2.63,9-1-3.88-3.66-7.23-3.36-13.27,1.51-.56-5.43-1.17-10.55-1.59-15.68C196.48,188.92,200.41,189.4,202.66,187.49Z" transform="translate(0 -0.2)"/><path class="cls-1" d="M152.87,210.47l-5.81-11,4-2.13-3.86-.4-.13-.64,6.34-1.71-.06-.45h-5.81l-.17-.87,5.34-1.26-5.63-1.67c2.94-4.58,5.31-9.24,8.64-13,1.43-1.63,4.88-1.48,7.26-2.1l-3.15-1.34c2.87-1.9,4.38-1.64,7.87.44,2.41,1.44,2.13,3.21,1.59,5.4-.81,3.21-1.41,6.48-2.1,9.72h-6.57l-.15.43,6.2,1.88-.11.71H161l-.08.56a5.68,5.68,0,0,0,1.41.38c3.43,0,4.79,1.59,5.38,5,.75,4.35,2.53,8.52,3.74,12.8.8,2.82,2.16,5.81-1.14,8.08s-6.33,1.49-9.33-.54c-.49-.33-.91-.77-1.57-1.33l4.53-3.3-6.46,1c.9-4.89,2.09-5.83,7.53-6.38C158.09,206.72,158.09,206.72,152.87,210.47Z" transform="translate(0 -0.2)"/><path class="cls-1" d="M363.85,178.47c-.85-3.46-1.64-6.64-2.42-9.83l-.49.11.58,10.2-1.14.1-2.19-9.71-.65.13v10.1l-.5,0-2.42-10.21-.5.15c.15,3,.44,5.92.38,8.87,0,1.8-.78,2.24-2.95,1.64-4.47-1.24-8.95-1.62-12.89,2.33-1.27,1.27-4.15.94-6.15,1.31-.85-3.53-1.61-6.72-2.38-9.91l-.48.11c.14,3.3.29,6.6.43,9.9l-1.18.09c-.65-3.14-1.3-6.27-1.94-9.41l-.64.13V184l-.65.06q-1.19-4.87-2.38-9.74l-.6.18c.25,2.54.62,5.08.72,7.63.12,3.21-2.43,3.28-4.62,3.51s-2.94-1.34-3.2-3.24c-1.56-11.68-2.92-9.93,8.25-11.63q18.6-2.82,37.19-5.67c4.81-.74,5.28-.39,5.93,4.49.22,1.6.5,3.19.67,4.79C368,178,367.65,178.32,363.85,178.47Z" transform="translate(0 -0.2)"/><path class="cls-1" d="M230.7,173.41l5.51-2.59h-4.3l-.24-.71,8.25-3.66,0-.49-6.75,1a10.77,10.77,0,0,1,12.14-3c5.55,2.09,9.17,8.31,9.12,16.37-1.44-2.63-2.59-4.73-3.75-6.83l-.38.18c.68,2.3,1.36,4.59,2.33,7.84L250,179.7l.28,5.36-1.16.93Z" transform="translate(0 -0.2)"/><path class="cls-1" d="M226.25,213.33,222.39,212l.12-1.19c1.74.1,3.91-.38,5.09.48,1,.72,1.33,3.14,1,4.6-.85,4-5.27,6.42-9.52,5.48C219.86,217.27,221.26,213.89,226.25,213.33Z" transform="translate(0 -0.2)"/><path class="cls-1" d="M265.16,179.65c12.43-3.21,25-5.89,38-5.28Z" transform="translate(0 -0.2)"/></svg>